PathFileType	4	(X/Y/Z)	/home/nbianco/projects/addbio/data/HamnerRunning2013/Processed/subject02//results/MarkerData/run300.trc
DataRate	CameraRate	NumFrames	NumMarkers	Units	OrigDataRate	OrigDataStartFrame	OrigNumFrames
119.99	119.99	8	42	m	119.99	134	269
Frame#	Time	C7			CLAV			LACR			LASI			LCAL			LFAradius			LFAsuperior			LFAulna			LLEL			LMEL			LMT5			LPSI			LTB1			LTB2			LTB3			LTH1			LTH2			LTH3			LTOE			LUA1			LUA2			LUA3			RACR			RASI			RCAL			RFAradius			RFAsuperior			RFAulna			RLEL			RMEL			RMT5			RPSI			RTB1			RTB2			RTB3			RTH1			RTH2			RTH3			RTOE			RUA1			RUA2			RUA3		
		X1	Y1	Z1	X2	Y2	Z2	X3	Y3	Z3	X4	Y4	Z4	X5	Y5	Z5	X6	Y6	Z6	X7	Y7	Z7	X8	Y8	Z8	X9	Y9	Z9	X10	Y10	Z10	X11	Y11	Z11	X12	Y12	Z12	X13	Y13	Z13	X14	Y14	Z14	X15	Y15	Z15	X16	Y16	Z16	X17	Y17	Z17	X18	Y18	Z18	X19	Y19	Z19	X20	Y20	Z20	X21	Y21	Z21	X22	Y22	Z22	X23	Y23	Z23	X24	Y24	Z24	X25	Y25	Z25	X26	Y26	Z26	X27	Y27	Z27	X28	Y28	Z28	X29	Y29	Z29	X30	Y30	Z30	X31	Y31	Z31	X32	Y32	Z32	X33	Y33	Z33	X34	Y34	Z34	X35	Y35	Z35	X36	Y36	Z36	X37	Y37	Z37	X38	Y38	Z38	X39	Y39	Z39	X40	Y40	Z40	X41	Y41	Z41	X42	Y42	Z42

135	2.25	0.854818	1.60497	-0.344836	0.977918	1.517	-0.324455	0.924076	1.56359	-0.521862	0.913371	1.09916	-0.453219	1.06228	0.0989967	-0.364933	0.906216	1.23392	-0.513638	0.764993	1.28051	-0.621984	0.885088	1.17097	-0.542414	0.678015	1.31769	-0.641446	0.640819	1.32309	-0.562601	1.24159	0.107467	-0.416011	0.73447	1.13693	-0.375945	1.1068	0.465825	-0.390557	1.09869	0.374664	-0.444622	1.13412	0.267945	-0.375268	0.902413	0.887841	-0.507516	1.00709	0.793727	-0.491413	0.985796	0.670789	-0.459494	1.28383	0.16999	-0.331336	0.867277	1.50267	-0.593423	0.850231	1.43356	-0.597278	0.756385	1.46038	-0.57586	0.950173	1.58673	-0.1922	0.907562	1.09551	-0.200066	0.271663	0.377304	-0.334343	1.03252	1.33795	-0.208338	0.96117	1.29626	-0.0497944	1.0719	1.29092	-0.166629	0.872321	1.27986	0.013329	0.81209	1.26459	-0.048072	0.288714	0.209141	-0.250169	0.734578	1.13913	-0.29245	0.591522	0.457134	-0.298008	0.518621	0.436635	-0.23578	0.452291	0.3638	-0.307048	0.800358	0.929466	-0.153477	0.809526	0.810032	-0.173759	0.702996	0.732195	-0.207365	0.352951	0.158206	-0.33018	0.938411	1.49844	-0.103663	0.943084	1.40958	-0.0952679	0.878394	1.41131	-0.0477035
136	2.25833	0.855124	1.60205	-0.346581	0.97808	1.51365	-0.325449	0.924968	1.55999	-0.523166	0.913484	1.09617	-0.454662	1.05576	0.0954839	-0.360903	0.911363	1.23005	-0.513688	0.771101	1.27414	-0.624506	0.891912	1.16662	-0.543107	0.68358	1.30991	-0.644593	0.645213	1.3149	-0.56616	1.23348	0.10205	-0.416767	0.734269	1.13333	-0.374699	1.10403	0.46207	-0.389472	1.09525	0.370626	-0.443147	1.12934	0.263764	-0.373629	0.900709	0.883991	-0.5087	1.00584	0.789721	-0.49314	0.984792	0.667462	-0.458985	1.27896	0.164337	-0.333495	0.86933	1.49778	-0.595212	0.853308	1.42831	-0.598672	0.759009	1.45377	-0.578422	0.950325	1.584	-0.193521	0.908645	1.09319	-0.200686	0.27258	0.394899	-0.333534	1.02974	1.32984	-0.208537	0.956402	1.29163	-0.0498258	1.06732	1.28209	-0.166264	0.866471	1.27912	0.0128172	0.806182	1.26501	-0.0487611	0.281831	0.227011	-0.247768	0.735046	1.13556	-0.291177	0.597566	0.45654	-0.298635	0.523762	0.440204	-0.235938	0.457361	0.367365	-0.307057	0.804738	0.924975	-0.154249	0.815292	0.805999	-0.175197	0.710371	0.726371	-0.20798	0.343192	0.172179	-0.327556	0.937086	1.49602	-0.10441	0.940188	1.40747	-0.0953744	0.875074	1.41034	-0.0485938
137	2.26667	0.855316	1.59845	-0.348373	0.978213	1.50957	-0.326171	0.92571	1.5556	-0.524406	0.913718	1.09277	-0.456426	1.04591	0.0923753	-0.356906	0.916938	1.22522	-0.513784	0.777722	1.26634	-0.626901	0.899284	1.16134	-0.5437	0.689811	1.30098	-0.648123	0.650334	1.30547	-0.570193	1.22154	0.0944025	-0.417272	0.734123	1.12901	-0.373496	1.10006	0.456826	-0.388308	1.09011	0.365276	-0.441858	1.12219	0.257995	-0.372218	0.899644	0.880224	-0.508528	1.00486	0.786544	-0.493145	0.983409	0.663487	-0.458417	1.27077	0.155761	-0.335065	0.871686	1.49188	-0.597188	0.856747	1.42205	-0.600045	0.762016	1.44592	-0.581363	0.950174	1.58052	-0.194732	0.909636	1.09019	-0.200831	0.275961	0.41231	-0.332157	1.02713	1.32005	-0.208171	0.95095	1.28618	-0.0494864	1.06248	1.27183	-0.164918	0.859869	1.27777	0.0122641	0.799824	1.26477	-0.0497226	0.277444	0.244787	-0.245346	0.735604	1.13108	-0.289939	0.604968	0.455397	-0.298986	0.530509	0.443331	-0.235745	0.464723	0.369968	-0.306812	0.809041	0.919926	-0.154888	0.821314	0.801349	-0.176221	0.718311	0.719568	-0.208426	0.33537	0.186426	-0.324984	0.935193	1.49306	-0.105028	0.936681	1.40464	-0.0954212	0.871217	1.40868	-0.0494865
138	2.275	0.855348	1.5941	-0.350176	0.978295	1.50483	-0.326699	0.926372	1.55048	-0.525542	0.914021	1.089	-0.45774	1.03308	0.0905671	-0.353099	0.922963	1.21949	-0.51404	0.784858	1.2573	-0.629236	0.907111	1.1552	-0.544157	0.696676	1.291	-0.651961	0.655929	1.29494	-0.574555	1.20614	0.0846801	-0.417424	0.7341	1.12395	-0.372484	1.0951	0.449979	-0.387272	1.08322	0.358491	-0.440639	1.11312	0.250698	-0.370923	0.899446	0.876347	-0.507179	1.00405	0.78391	-0.491131	0.981573	0.658819	-0.457897	1.25963	0.143673	-0.335717	0.874304	1.48506	-0.599164	0.860486	1.41491	-0.601382	0.765359	1.43696	-0.584658	0.949778	1.57632	-0.195751	0.91053	1.08648	-0.200711	0.281782	0.42915	-0.33029	1.02457	1.30881	-0.207112	0.944812	1.28007	-0.0488069	1.05738	1.26031	-0.162542	0.852623	1.27583	0.011667	0.793051	1.26383	-0.0509153	0.275599	0.262115	-0.242917	0.736217	1.12562	-0.288929	0.613594	0.453669	-0.298898	0.538701	0.44591	-0.235118	0.473627	0.371976	-0.306187	0.813364	0.914307	-0.155363	0.827756	0.795971	-0.176721	0.72692	0.711858	-0.208545	0.329681	0.200646	-0.322503	0.932849	1.48949	-0.105557	0.93267	1.40107	-0.0954405	0.866863	1.40634	-0.0504018
139	2.28333	0.855162	1.58902	-0.351947	0.978299	1.49942	-0.327155	0.927069	1.54463	-0.526604	0.914209	1.08482	-0.458037	1.01745	0.0904325	-0.349691	0.929438	1.21296	-0.514468	0.792556	1.24726	-0.631793	0.91531	1.14824	-0.544475	0.704153	1.28003	-0.656021	0.66192	1.28337	-0.57919	1.18783	0.0738893	-0.417195	0.734096	1.11831	-0.371769	1.08974	0.441988	-0.386403	1.07492	0.350645	-0.439174	1.10255	0.242387	-0.36925	0.900092	0.872102	-0.505316	1.00346	0.781114	-0.48769	0.979518	0.653633	-0.45742	1.24585	0.128459	-0.335263	0.87714	1.47741	-0.601055	0.864492	1.40697	-0.602705	0.768987	1.42703	-0.588258	0.949188	1.57143	-0.196543	0.911341	1.08207	-0.200474	0.289932	0.445027	-0.328	1.02196	1.2963	-0.20533	0.938026	1.27336	-0.0478507	1.05198	1.24764	-0.159188	0.844836	1.27332	0.0110109	0.785907	1.26218	-0.052297	0.276228	0.27864	-0.240431	0.736539	1.11925	-0.288235	0.623334	0.451315	-0.298273	0.548221	0.447788	-0.23404	0.483645	0.373462	-0.305109	0.817777	0.90809	-0.155745	0.834624	0.78985	-0.176728	0.736156	0.703382	-0.208322	0.326321	0.214502	-0.320087	0.930142	1.48523	-0.105996	0.928228	1.39677	-0.0954544	0.862045	1.40334	-0.0513637
140	2.29167	0.854719	1.5833	-0.353663	0.978257	1.49335	-0.327618	0.927906	1.53804	-0.527678	0.914006	1.08014	-0.457461	0.999172	0.0916052	-0.346895	0.936337	1.20571	-0.51499	0.800846	1.23641	-0.634783	0.923832	1.14052	-0.544672	0.712228	1.26811	-0.660207	0.668388	1.27084	-0.584074	1.16728	0.0639703	-0.416587	0.733776	1.11234	-0.371348	1.08471	0.433966	-0.385577	1.06596	0.342808	-0.437252	1.09079	0.234184	-0.366746	0.901226	0.867583	-0.503855	1.00315	0.777441	-0.484195	0.977665	0.648329	-0.456918	1.2295	0.112248	-0.333704	0.880139	1.46901	-0.602852	0.868759	1.39828	-0.604049	0.772865	1.41624	-0.592081	0.948383	1.56598	-0.197129	0.912065	1.07698	-0.200202	0.300226	0.459607	-0.325375	1.01916	1.28257	-0.202884	0.930669	1.26612	-0.0467031	1.04618	1.23387	-0.155002	0.836597	1.27024	0.0102615	0.778477	1.25982	-0.053869	0.279252	0.294056	-0.237832	0.736055	1.11221	-0.287793	0.634141	0.44835	-0.297147	0.559002	0.448849	-0.232564	0.494726	0.374284	-0.303604	0.822252	0.901221	-0.156202	0.841732	0.78313	-0.176417	0.745834	0.694293	-0.207884	0.325539	0.227667	-0.317654	0.927098	1.48025	-0.106304	0.923381	1.39177	-0.095484	0.856798	1.39968	-0.0523876
141	2.3	0.854024	1.57709	-0.355357	0.978264	1.48671	-0.328084	0.928904	1.53073	-0.528878	0.913114	1.07501	-0.456677	0.978521	0.093337	-0.34484	0.943625	1.19776	-0.515515	0.809709	1.22486	-0.638127	0.932654	1.13207	-0.544759	0.720879	1.25533	-0.664418	0.675445	1.25739	-0.589137	1.14516	0.0569611	-0.415697	0.732696	1.10635	-0.37107	1.08037	0.427335	-0.384643	1.05723	0.336482	-0.435028	1.078	0.227574	-0.363526	0.902191	0.863347	-0.503507	1.003	0.772736	-0.482158	0.976485	0.643505	-0.456509	1.21059	0.0981841	-0.331307	0.883241	1.4599	-0.604567	0.873283	1.3889	-0.605417	0.776976	1.40468	-0.59603	0.947246	1.56015	-0.197535	0.91264	1.07122	-0.199987	0.312432	0.472653	-0.322528	1.01608	1.26753	-0.199855	0.922853	1.25836	-0.0454222	1.03987	1.219	-0.150151	0.827973	1.26664	0.00936276	0.770889	1.25682	-0.0556924	0.284688	0.308113	-0.235089	0.734461	1.1048	-0.28745	0.646054	0.444905	-0.295745	0.571037	0.449082	-0.230826	0.507017	0.374303	-0.301819	0.826668	0.893665	-0.156904	0.848796	0.776113	-0.176033	0.755726	0.684736	-0.207481	0.327612	0.239857	-0.315118	0.923694	1.47454	-0.106427	0.918118	1.38608	-0.0955548	0.85116	1.39538	-0.0534598
142	2.30833	0.853177	1.57067	-0.35711	0.978431	1.47975	-0.328483	0.929975	1.52283	-0.530312	0.91133	1.06972	-0.456243	0.95605	0.0950314	-0.343527	0.951283	1.18909	-0.515982	0.819069	1.2127	-0.641485	0.941768	1.12296	-0.544725	0.730071	1.24181	-0.66857	0.683137	1.2431	-0.594237	1.12194	0.0537665	-0.414787	0.730575	1.10055	-0.370653	1.0765	0.42309	-0.383573	1.04922	0.332835	-0.433004	1.06427	0.223689	-0.360385	0.902224	0.860007	-0.504365	1.00263	0.767675	-0.482398	0.976309	0.6398	-0.456661	1.18934	0.0885766	-0.328633	0.88642	1.4501	-0.606209	0.878032	1.37884	-0.606752	0.781307	1.39241	-0.600025	0.945619	1.55421	-0.197738	0.91294	1.06484	-0.199924	0.326285	0.484032	-0.319563	1.01258	1.25111	-0.196302	0.914704	1.25011	-0.0439969	1.03294	1.20307	-0.144757	0.819018	1.26262	0.00824004	0.763261	1.2533	-0.0578558	0.292693	0.320577	-0.232194	0.731985	1.09725	-0.287053	0.659167	0.441229	-0.294432	0.584358	0.448585	-0.229035	0.520661	0.373534	-0.299979	0.830881	0.885528	-0.157898	0.855593	0.769208	-0.175783	0.765679	0.674918	-0.207431	0.332781	0.25082	-0.312448	0.919922	1.46819	-0.106341	0.912406	1.37975	-0.0957051	0.845157	1.39052	-0.054534
